# xmcd CD database file
#
# Track frame offsets:
#	150
#	11030
#	25894
#	38724
#	53039
#	63051
#	75357
#	88236
#	98339
#	112912
#	122863
#	132394
#	145104
#	159934
#	173217
#	187157
#	205189
#	219610
#	233754
#	244006
#	254797
#	267190
#	278579
#	289030
#	297503
#
# Disc length: 4108 seconds
#
# Revision: 2
# Processed by: cddbd v1.4b41PL1 Copyright (c) Steve Scherf et al.
# Submitted via: Feurio! 1.50.2ß - http://www.feurio.com
#
DISCID=64100a19
DTITLE=Various Artist - Torsten´s Oldie - Parade
DYEAR=1900
DGENRE=
TTITLE0=Gerry and the Peacemakers - Ferry Cross The Mercy
TTITLE1=Mamas and the Papas - Monday.Monday
TTITLE2=The Rolling Stones - Under The Bordwalk
TTITLE3=Walker Brothers - The Sun Ainn`t Gonna Shine Anymore
TTITLE4=The Searchers - Needles And Pins
TTITLE5=The Beatles - Nowhere Man
TTITLE6=The Kinks - Where Have All The Good Times Gone
TTITLE7=The Beach Boys - I Get Around
TTITLE8=The Animals - We`ve Gotta Get Out Of This Place
TTITLE9=The Rattles - Come On And Sing
TTITLE10=The Swinging Blue Jeans - Shake, Rattle And Roll
TTITLE11=The Lords - Poor Boy
TTITLE12=The Who - My Generation
TTITLE13=Roy Orbison - Oh Pretty Woman
TTITLE14=Simon And Garfunkel - The Sounds Of Silence
TTITLE15=Tony Sheridan And The Beat Brothers - Skinny Minny
TTITLE16=The Rolling Stones - I Am Waiting
TTITLE17=The Tremeloes - Silence Is Golden
TTITLE18=The Lords - Shakin` All Over
TTITLE19=The Kinks - All Day And All Of The Night
TTITLE20=Spencer Davis Group - Keep On Running
TTITLE21=The Beatles - Rock And Roll Music
TTITLE22=The Byrds - Mr. Tambourine Man
TTITLE23=The Beach Boys - Little Honda
TTITLE24=Manfred Mann - Do Wah Diddy Diddy
EXTD=
EXTT0=
EXTT1=
EXTT2=
EXTT3=
EXTT4=
EXTT5=
EXTT6=
EXTT7=
EXTT8=
EXTT9=
EXTT10=
EXTT11=
EXTT12=
EXTT13=
EXTT14=
EXTT15=
EXTT16=
EXTT17=
EXTT18=
EXTT19=
EXTT20=
EXTT21=
EXTT22=
EXTT23=
EXTT24=
PLAYORDER=
